<svg width="490" height="81" viewBox="0 0 490 81" fill="none" xmlns="http://www.w3.org/2000/svg">
<path d="M74 22C74 24.7333 73.2333 29.0667 71.7 35C70.5667 39.3333 69.4333 43.7 68.3 48.1C68.2333 48.1667 67.5667 52 66.3 59.6C65.3 65.2 64.4333 68.7 63.7 70.1C63.1 71.2333 58.6667 71.8 50.4 71.8C47.5333 71.8 45.5 71.1 44.3 69.7C44.2333 69.6333 43.1333 67.5667 41 63.5C39.9333 64.9667 38.9 66.4333 37.9 67.9C36.5667 69.7667 35.2333 70.7 33.9 70.7C32.6333 70.7 30.6667 70.7333 28 70.8C25.4 70.8667 23.4333 70.9 22.1 70.9C20.3667 70.9 18.3333 69.6667 16 67.2C13.8667 65 12.4667 62.9333 11.8 61C10.9333 58.4667 10.0667 54.6333 9.2 49.5C8.13333 43.3667 7.4 39.4333 7 37.7C5.46667 31.2333 3.16667 21.5 0.1 8.5C0.833333 8.03333 3.1 7.39999 6.9 6.6C10.7 5.73333 13.1667 5.3 14.3 5.3C14.5 5.3 15.8 5.36666 18.2 5.49999L18.8 5.6C19.7333 5.8 21.0667 6.49999 22.8 7.7C24.6 8.83333 25.7667 9.83333 26.3 10.7C27.1 11.8333 27.9333 15.6333 28.8 22.1C29.8667 29.4333 30.6 33.7667 31 35.1C31.4667 33.9667 31.9333 32.8667 32.4 31.8C32.8 31.2 33.8 30.9 35.4 30.9C37.9333 30.9 40.6333 31.5 43.5 32.7C44.1667 33.0333 44.9333 33.7 45.8 34.7C46.8 36.0333 47.4667 36.8333 47.8 37.1C48.6667 32.7667 49.9333 26.9 51.6 19.5C53.6 10.4333 54.9333 5.16666 55.6 3.7H56C56.7333 3.7 59.2333 4.7 63.5 6.7C67.8333 8.7 70.1333 9.9 70.4 10.3C70.8667 11.0333 71.5667 12.9667 72.5 16.1C73.5 19.1667 74 21.1333 74 22ZM67.3 11.6C65.0333 10.4667 61.6667 8.8 57.2 6.6C55.8 13.1333 54.4 19.6667 53 26.2C50.9333 35.6667 49.2667 41.6 48 44C47.3333 45.3333 46.8333 46 46.5 46C45.7 46 44.6333 44.1333 43.3 40.4C41.9667 36.6 41.1333 34.6333 40.8 34.5C38.8667 33.8333 37 33.5 35.2 33.5C35 33.5 33.8667 35.6667 31.8 40C29.7333 44.2667 28.0333 46.4 26.7 46.4C25.5667 46.4 24.3667 43.0667 23.1 36.4C22.3667 32.2667 21.6667 28.1333 21 24C19.1333 16.3333 17.3 11 15.5 8L14.3 7.9C12.8333 7.83333 11 8.16666 8.8 8.9C6.6 9.56666 4.76667 9.86666 3.3 9.8V10.5C4.63333 16.2333 6.76667 25 9.7 36.8C10.6333 42.1333 12.3667 50.0667 14.9 60.6C18.5667 61 24 61.5333 31.2 62.2C32.2667 59.9333 33.3333 57.7 34.4 55.5C36.0667 51.9667 37.2333 50.2 37.9 50.2C38.6333 50.2 39.7667 52.1667 41.3 56.1C42.1 58.5 42.9333 60.9 43.8 63.3C44.6 63.2333 45.7333 63.2667 47.2 63.4C48.7333 63.4667 49.8 63.5 50.4 63.5C54.6 63.5 57.0333 62.6667 57.7 61C59.0333 57.5333 60.4667 51.4667 62 42.8C63.0667 36.3333 64.1333 29.8667 65.2 23.4C65.8 20.8 66.5 16.8667 67.3 11.6ZM59.8 68.4C59.3333 67.6667 58.7667 66.5 58.1 64.9C54.9 65.7667 50.6333 66.2333 45.3 66.3H44.9C45.9 68.1667 47.3 69.1 49.1 69.1C49.2333 69.1 52.8 68.8667 59.8 68.4ZM32 67.7C31.6667 66.9667 31.2 66.1333 30.6 65.2C30 64.9333 25.5 64.4 17.1 63.6C17.9 64.7333 18.7 65.8 19.5 66.8C20.3667 67.7333 21.6 68.2 23.2 68.2C24.1333 68.2 25.5667 68.1333 27.5 68C29.5 67.8 31 67.7 32 67.7ZM114.48 53.072C114.48 56.576 113.616 60.296 111.888 64.232C109.728 69.128 106.848 72.392 103.248 74.024C102.144 74.648 101.016 75.272 99.8643 75.896C98.9043 76.376 97.7763 76.616 96.4803 76.616C91.7283 76.616 87.7683 75.392 84.6003 72.944C82.8723 71.648 81.1923 68.792 79.5603 64.376C77.9763 60.248 77.1843 56.912 77.1843 54.368V47.6C77.1843 47.792 77.5443 45.992 78.2643 42.2C78.4563 40.808 78.9843 38.6 79.8483 35.576C80.7123 33.512 82.5363 31.208 85.3203 28.664C87.6723 26.552 89.2803 25.4 90.1443 25.208C93.5043 24.248 95.7843 23.768 96.9843 23.768C100.728 23.768 104.088 25.88 107.064 30.104C109.368 33.416 111.264 37.712 112.752 42.992C113.904 47.216 114.48 50.576 114.48 53.072ZM112.248 54.296C112.248 49.496 111.048 44.072 108.648 38.024C105.432 29.912 101.184 25.856 95.9043 25.856C90.8643 25.856 87.1923 28.832 84.8883 34.784C83.4003 38.72 82.6563 43.232 82.6563 48.32C82.6563 56.48 85.7043 63.032 91.8003 67.976C92.5683 68.6 93.7443 69.224 95.3283 69.848C96.9603 70.472 98.2563 70.784 99.2163 70.784C103.2 70.784 106.44 68.864 108.936 65.024C111.144 61.712 112.248 58.136 112.248 54.296ZM90.7923 70.136C87.4803 67.832 84.8883 64.568 83.0163 60.344C81.2883 56.504 80.4243 52.52 80.4243 48.392C80.4243 45.608 80.5203 43.592 80.7123 42.344C80.8563 41.288 81.3843 39.224 82.2963 36.152C81.9123 36.392 81.4323 37.064 80.8563 38.168C80.4243 39.896 79.9923 41.6 79.5603 43.28C79.1283 45.2 78.8883 47.024 78.8403 48.752C78.7923 51.152 79.0803 53.768 79.7043 56.6C80.2323 58.664 80.7603 60.728 81.2883 62.792C81.4803 63.512 81.8403 64.4 82.3683 65.456C82.8483 66.32 83.3283 67.208 83.8083 68.12C84.5763 69.608 85.2003 70.472 85.6803 70.712C85.8723 70.856 86.4723 70.928 87.4803 70.928C87.6723 70.928 88.2003 70.808 89.0643 70.568C89.9763 70.328 90.5523 70.184 90.7923 70.136ZM105.984 50.12C105.984 52.472 105.504 54.464 104.544 56.096C103.344 58.16 101.616 59.192 99.3603 59.192C96.0003 59.192 93.6483 56.696 92.3043 51.704C91.5843 48.872 91.2243 45.632 91.2243 41.984C91.2243 35.648 92.6643 32.48 95.5443 32.48C97.0803 32.48 98.1363 32.768 98.7123 33.344C100.536 35.024 102.192 37.64 103.68 41.192C105.216 44.696 105.984 47.672 105.984 50.12ZM101.232 50.048C101.232 48.608 100.728 46.616 99.7203 44.072C98.4243 40.76 96.8883 39.104 95.1123 39.104C94.3443 39.104 93.7443 39.44 93.3123 40.112V45.8C93.3123 46.712 93.7443 48.656 94.6083 51.632C95.6643 55.184 96.6963 56.96 97.7043 56.96C98.4723 56.96 99.2403 56.192 100.008 54.656C100.728 53.312 101.088 52.136 101.088 51.128C101.088 51.032 101.112 50.864 101.16 50.624C101.208 50.384 101.232 50.192 101.232 50.048ZM104.256 53.144C103.776 53.048 103.056 53.504 102.096 54.512C100.896 55.76 100.224 56.408 100.08 56.456C100.032 56.456 100.2 56.504 100.584 56.6C101.016 56.696 101.592 56.744 102.312 56.744C102.696 56.456 103.128 55.88 103.608 55.016C104.088 54.152 104.304 53.528 104.256 53.144ZM167.194 23.9C167.194 31.3667 165.227 37.3667 161.294 41.9C160.36 42.9667 158.794 44.2333 156.594 45.7C154.727 46.9667 153.794 47.6333 153.794 47.7C160.46 58.4333 163.794 65.1333 163.794 67.8C163.794 70.0667 163.494 71.6333 162.894 72.5C162.094 73.5 160.06 74.9 156.794 76.7C153.527 78.4333 151.194 79.4667 149.794 79.8C148.194 77.9333 146.36 75.0667 144.294 71.2C141.827 66.4667 140.16 63.4 139.294 62C139.094 62.6667 138.994 63.9 138.994 65.7C138.994 66.3667 138.994 67.4333 138.994 68.9C139.06 70.4333 139.094 71.6 139.094 72.4C139.094 78.0667 138.127 80.9 136.194 80.9C135.527 80.9 134.494 80.7333 133.094 80.4C131.694 80.0667 130.694 79.9 130.094 79.9C129.56 79.8333 128.827 79.8333 127.894 79.9C126.76 79.9667 126.027 80 125.694 80C124.694 80 123.827 79.8333 123.094 79.5C122.427 79.1 121.36 77.7333 119.894 75.4C118.427 73.0667 117.694 71.5667 117.694 70.9C117.694 67.9667 119.027 56.4 121.694 36.2C124.494 15.5333 126.26 4.53333 126.994 3.2C127.327 2.53333 128.36 1.96666 130.094 1.5C131.494 1.1 132.727 0.899999 133.794 0.899999C135.06 0.899999 136.86 1.16666 139.194 1.69999C141.994 2.3 143.76 2.66666 144.494 2.8C152.294 3.73333 157.827 5.53333 161.094 8.19999C165.16 11.4667 167.194 16.7 167.194 23.9ZM164.094 19.9C164.094 18.5 163.46 16.7333 162.194 14.6C160.194 11.2 157.294 8.9 153.494 7.7C153.427 7.7 149.694 6.96666 142.294 5.49999C136.76 4.43333 133.76 3.9 133.294 3.9C132.494 3.9 131.394 4.13333 129.994 4.6C129.527 7.33333 128.86 11.4667 127.994 17C126.927 24.6 125.827 32.2 124.694 39.8C123.494 48.5333 122.66 56.1333 122.194 62.6C122.127 63.2667 121.927 64.6667 121.594 66.8C121.26 68.6 121.127 70 121.194 71C121.594 71.2 122.16 71.3 122.894 71.3C123.16 71.3 123.76 71.3667 124.694 71.5C125.627 71.6333 126.194 71.7 126.394 71.7C127.394 71.7 128.494 71.8 129.694 72C130.894 72.2 132.06 72.3 133.194 72.3C134.327 62.7 135.16 53.0667 135.694 43.4H136.694C137.627 44.3333 140.06 48.6333 143.994 56.3C148.66 65.5 151.26 70.5333 151.794 71.4C153.66 70.3333 156.46 68.6333 160.194 66.3C159.46 64.3 158.227 61.3333 156.494 57.4C156.36 57.0667 154.894 54.6667 152.094 50.2C149.76 46.4667 148.594 44.2333 148.594 43.5C148.594 43.3667 149.927 41.9333 152.594 39.2C155.794 35.9333 158.294 33 160.094 30.4C162.76 26.5333 164.094 23.0333 164.094 19.9ZM149.294 74.9C149.627 74.7 149.927 74.4667 150.194 74.2C147.327 68 143.894 61.1333 139.894 53.6L138.994 54.5L149.294 74.9ZM135.494 78.1C135.36 77.5 135.127 76.7 134.794 75.7C134.26 75.5 132.594 75.2333 129.794 74.9C127.06 74.5 125.294 74.3 124.494 74.3H121.894L123.894 77.2C126.494 77.1333 130.36 77.4333 135.494 78.1ZM154.394 19.8C154.394 23.7333 152.727 27.0667 149.394 29.8C146.06 32.5333 142.394 33.9 138.394 33.9C137.127 33.9 136.227 33.7333 135.694 33.4C135.16 33 134.894 32.1667 134.894 30.9C134.894 29.1 135.06 26.3667 135.394 22.7C135.794 19.0333 135.994 16.2667 135.994 14.4C135.994 12.7333 137.194 11.7 139.594 11.3C140.127 11.2333 142.06 11.2 145.394 11.2C147.86 11.2 149.96 12 151.694 13.6C153.494 15.2 154.394 17.2667 154.394 19.8ZM150.994 20.9C149.394 19.7 148.094 19.1 147.094 19.1C145.76 19.1667 145.027 19.2 144.894 19.2C144.16 19.4 143.76 19.9667 143.694 20.9C143.494 22.5 143.494 24.9667 143.694 28.3L143.794 29.8C145.394 29.5333 146.96 28.4333 148.494 26.5C150.027 24.5667 150.86 22.7 150.994 20.9ZM140.794 20.8C140.794 20.5333 140.394 19.7667 139.594 18.5C138.86 17.1667 138.46 16.4 138.394 16.2C138.394 17.2 138.327 18.7 138.194 20.7C138.06 22.7 137.994 24.2333 137.994 25.3C137.994 27.0333 138.094 28.9667 138.294 31.1C139.094 30.9667 139.827 30.9 140.494 30.9C140.494 29.8333 140.527 28.1667 140.594 25.9C140.727 23.5667 140.794 21.8667 140.794 20.8ZM211.07 54.584C210.782 59.144 209.774 63.008 208.046 66.176C205.406 70.928 202.982 74.096 200.774 75.68C197.75 77.936 193.31 78.992 187.454 78.848C180.014 78.752 175.622 77.48 174.278 75.032C171.782 70.568 170.534 68.192 170.534 67.904C170.534 67.088 171.374 63.632 173.054 57.536C174.062 53.696 175.094 49.856 176.15 46.016C176.966 42.752 177.878 38.288 178.886 32.624C180.038 26.432 181.19 23.336 182.342 23.336C186.23 23.336 190.118 24.152 194.006 25.784C202.646 29.528 207.758 35 209.342 42.2C209.774 44.12 210.206 46.04 210.638 47.96C211.07 50.312 211.214 52.52 211.07 54.584ZM207.686 48.032C207.686 43.088 206.486 39.032 204.086 35.864C201.974 33.032 198.566 30.536 193.862 28.376C190.31 26.696 186.734 25.856 183.134 25.856C182.99 26.864 182.63 28.136 182.054 29.672C181.43 31.592 181.046 32.864 180.902 33.488C180.422 36.176 179.63 40.16 178.526 45.44C177.47 50.096 175.574 57.584 172.838 67.904C177.59 70.544 182.414 71.864 187.31 71.864C189.518 71.864 191.558 71.504 193.43 70.784C194.102 70.544 195.95 69.656 198.974 68.12C201.566 66.776 203.438 64.904 204.59 62.504C205.166 61.256 205.91 58.688 206.822 54.8C207.398 52.16 207.686 49.904 207.686 48.032ZM194.51 75.968C193.694 75.488 192.878 74.984 192.062 74.456C191.294 74.072 190.07 73.832 188.39 73.736C185.03 73.544 182.582 73.352 181.046 73.16C178.07 72.728 175.574 71.96 173.558 70.856C173.558 70.952 173.966 71.768 174.782 73.304C175.31 74.264 175.886 74.936 176.51 75.32C178.19 76.28 180.83 76.76 184.43 76.76C189.662 76.76 193.022 76.496 194.51 75.968ZM202.07 49.544C202.07 49.928 201.854 51.104 201.422 53.072C201.374 53.696 201.206 54.584 200.918 55.736C198.23 61.784 193.382 64.808 186.374 64.808C184.982 64.808 183.71 64.64 182.558 64.304C180.926 63.776 180.11 63.008 180.11 62C180.11 61.712 181.886 56.288 185.438 45.728C185.774 44.384 186.278 42.368 186.95 39.68C187.526 37.232 187.838 35.984 187.886 35.936C188.462 34.16 189.11 33.272 189.83 33.272C190.406 33.272 192.038 34.208 194.726 36.08C197.462 37.904 199.358 39.752 200.414 41.624C201.518 43.64 202.07 46.28 202.07 49.544ZM199.55 48.464V47.168C199.55 44.624 198.638 42.464 196.814 40.688C196.19 40.016 194.294 38.624 191.126 36.512C191.75 38 192.47 40.208 193.286 43.136C196.262 44.672 198.35 46.448 199.55 48.464ZM198.686 53.72C198.686 51.896 198.134 50.168 197.03 48.536C195.926 46.904 194.534 45.68 192.854 44.864C191.99 47.888 191.126 50.912 190.262 53.936C189.11 57.872 188.078 60.728 187.166 62.504C188.222 62.456 189.758 62.216 191.774 61.784C193.454 61.16 195.014 60.08 196.454 58.544C197.942 56.96 198.686 55.352 198.686 53.72ZM267.511 66.5C262.778 68.6333 257.444 69.7 251.511 69.7C239.178 69.7 228.544 64.9333 219.611 55.4C218.278 53.9333 217.044 50.8667 215.911 46.2C214.978 42.0667 214.511 38.7 214.511 36.1C214.511 32.3 214.878 28.8333 215.611 25.7C216.744 20.9667 219.444 16.5 223.711 12.3C228.044 8.1 232.544 5.73333 237.211 5.2C243.678 4.46666 249.044 4.09999 253.311 4.09999C254.178 4.09999 254.911 4.09999 255.511 4.09999C260.311 6.96666 262.711 9 262.711 10.2C262.711 12.3333 262.578 14.9333 262.311 18C261.911 22.2 261.444 24.4 260.911 24.6C260.378 24.7333 259.744 24.9 259.011 25.1C258.344 25.3 255.811 26.1333 251.411 27.6C248.478 28.4667 246.078 29.6667 244.211 31.2C243.278 31.9333 242.378 33.1 241.511 34.7C240.644 36.2333 240.211 37.5667 240.211 38.7C240.211 43.0333 241.244 46.1667 243.311 48.1H243.911C246.644 48.1 249.444 47.9333 252.311 47.6C252.778 47.5333 253.711 47.3333 255.111 47C256.311 46.7333 257.244 46.6 257.911 46.6C258.644 46.6 260.178 47.9 262.511 50.5C264.911 53.0333 266.211 54.7 266.411 55.5C266.811 57.3667 267.178 61.0333 267.511 66.5ZM259.511 11.7C259.511 11.3 259.311 10.9 258.911 10.5C258.578 10.1 258.244 9.7 257.911 9.3C257.844 11.7 257.611 15.2667 257.211 20C257.944 20.4 258.544 20.9 259.011 21.5C259.011 20.3667 259.078 18.7333 259.211 16.6C259.411 14.4 259.511 12.7667 259.511 11.7ZM264.111 62C263.978 60.3333 263.811 58.6667 263.611 57C263.478 55.6667 262.478 54.1 260.611 52.3V53.9C260.611 58.3 261.778 61 264.111 62ZM246.111 26.4C244.378 25.4667 242.611 25 240.811 25C238.144 25 235.978 26.0667 234.311 28.2C232.711 30.2667 231.911 32.6667 231.911 35.4C231.911 37.8 232.478 39.9333 233.611 41.8C234.278 42.9333 235.711 44.6333 237.911 46.9C237.111 45.1 236.711 42.7667 236.711 39.9C236.711 34.3 239.844 29.8 246.111 26.4ZM258.511 60.2C258.111 57.8667 257.678 54.4 257.211 49.8C253.678 51 247.944 51.6 240.011 51.6C238.144 51.6 235.978 50.3 233.511 47.7C231.044 45.1 229.544 42.8 229.011 40.8C228.544 39.0667 228.311 37.3333 228.311 35.6C228.311 29.9333 231.278 25.5667 237.211 22.5C241.478 20.2333 246.944 18.8333 253.611 18.3C253.744 15.9 254.044 12.3333 254.511 7.6H251.111C244.311 7.6 239.044 8.2 235.311 9.4C229.911 11.0667 225.811 14.2 223.011 18.8C222.411 19.5333 221.611 20.6333 220.611 22.1C218.878 25.3667 218.011 29.9333 218.011 35.8C218.011 38 218.511 41.1 219.511 45.1C220.578 49.5 221.644 52.3667 222.711 53.7C225.311 56.7667 229.078 59.2 234.011 61C238.411 62.6 242.844 63.4 247.311 63.4C248.111 63.4 249.944 62.9667 252.811 62.1C255.411 61.3 257.311 60.6667 258.511 60.2ZM306.126 39.608C306.126 44.984 304.71 49.304 301.878 52.568C301.206 53.336 300.078 54.248 298.494 55.304C297.15 56.216 296.478 56.696 296.478 56.744C301.278 64.472 303.678 69.296 303.678 71.216C303.678 72.848 303.462 73.976 303.03 74.6C302.454 75.32 300.99 76.328 298.638 77.624C296.286 78.872 294.606 79.616 293.598 79.856C292.446 78.512 291.126 76.448 289.638 73.664C287.862 70.256 286.662 68.048 286.038 67.04C285.894 67.52 285.822 68.408 285.822 69.704C285.822 70.184 285.822 70.952 285.822 72.008C285.87 73.112 285.894 73.952 285.894 74.528C285.894 78.608 285.198 80.648 283.806 80.648C283.326 80.648 282.582 80.528 281.574 80.288C280.566 80.048 279.846 79.928 279.414 79.928C279.03 79.88 278.502 79.88 277.83 79.928C277.014 79.976 276.486 80 276.246 80C275.526 80 274.902 79.88 274.374 79.64C273.894 79.352 273.126 78.368 272.07 76.688C271.014 75.008 270.486 73.928 270.486 73.448C270.486 71.336 271.446 63.008 273.366 48.464C275.382 33.584 276.654 25.664 277.182 24.704C277.422 24.224 278.166 23.816 279.414 23.48C280.422 23.192 281.31 23.048 282.078 23.048C282.99 23.048 284.286 23.24 285.966 23.624C287.982 24.056 289.254 24.32 289.782 24.416C295.398 25.088 299.382 26.384 301.734 28.304C304.662 30.656 306.126 34.424 306.126 39.608ZM303.894 36.728C303.894 35.72 303.438 34.448 302.526 32.912C301.086 30.464 298.998 28.808 296.262 27.944C296.214 27.944 293.526 27.416 288.198 26.36C284.214 25.592 282.054 25.208 281.718 25.208C281.142 25.208 280.35 25.376 279.342 25.712C279.006 27.68 278.526 30.656 277.902 34.64C277.134 40.112 276.342 45.584 275.526 51.056C274.662 57.344 274.062 62.816 273.726 67.472C273.678 67.952 273.534 68.96 273.294 70.496C273.054 71.792 272.958 72.8 273.006 73.52C273.294 73.664 273.702 73.736 274.23 73.736C274.422 73.736 274.854 73.784 275.526 73.88C276.198 73.976 276.606 74.024 276.75 74.024C277.47 74.024 278.262 74.096 279.126 74.24C279.99 74.384 280.83 74.456 281.646 74.456C282.462 67.544 283.062 60.608 283.446 53.648H284.166C284.838 54.32 286.59 57.416 289.422 62.936C292.782 69.56 294.654 73.184 295.038 73.808C296.382 73.04 298.398 71.816 301.086 70.136C300.558 68.696 299.67 66.56 298.422 63.728C298.326 63.488 297.27 61.76 295.254 58.544C293.574 55.856 292.734 54.248 292.734 53.72C292.734 53.624 293.694 52.592 295.614 50.624C297.918 48.272 299.718 46.16 301.014 44.288C302.934 41.504 303.894 38.984 303.894 36.728ZM293.238 76.328C293.478 76.184 293.694 76.016 293.886 75.824C291.822 71.36 289.35 66.416 286.47 60.992L285.822 61.64L293.238 76.328ZM283.302 78.632C283.206 78.2 283.038 77.624 282.798 76.904C282.414 76.76 281.214 76.568 279.198 76.328C277.23 76.04 275.958 75.896 275.382 75.896H273.51L274.95 77.984C276.822 77.936 279.606 78.152 283.302 78.632ZM296.91 36.656C296.91 39.488 295.71 41.888 293.31 43.856C290.91 45.824 288.27 46.808 285.39 46.808C284.478 46.808 283.83 46.688 283.446 46.448C283.062 46.16 282.87 45.56 282.87 44.648C282.87 43.352 282.99 41.384 283.23 38.744C283.518 36.104 283.662 34.112 283.662 32.768C283.662 31.568 284.526 30.824 286.254 30.536C286.638 30.488 288.03 30.464 290.43 30.464C292.206 30.464 293.718 31.04 294.966 32.192C296.262 33.344 296.91 34.832 296.91 36.656ZM294.462 37.448C293.31 36.584 292.374 36.152 291.654 36.152C290.694 36.2 290.166 36.224 290.07 36.224C289.542 36.368 289.254 36.776 289.206 37.448C289.062 38.6 289.062 40.376 289.206 42.776L289.278 43.856C290.43 43.664 291.558 42.872 292.662 41.48C293.766 40.088 294.366 38.744 294.462 37.448ZM287.118 37.376C287.118 37.184 286.83 36.632 286.254 35.72C285.726 34.76 285.438 34.208 285.39 34.064C285.39 34.784 285.342 35.864 285.246 37.304C285.15 38.744 285.102 39.848 285.102 40.616C285.102 41.864 285.174 43.256 285.318 44.792C285.894 44.696 286.422 44.648 286.902 44.648C286.902 43.88 286.926 42.68 286.974 41.048C287.07 39.368 287.118 38.144 287.118 37.376ZM375.961 57.8C375.961 58.7333 375.428 59.4667 374.361 60C372.628 60.5333 370.061 61.4667 366.661 62.8C364.794 63.8667 362.061 65.2667 358.461 67C358.061 67.1333 357.028 67.6333 355.361 68.5C354.028 69.1667 353.228 69.5 352.961 69.5C351.694 69.5 349.894 68.1333 347.561 65.4C345.228 62.6667 344.028 60.8667 343.961 60C343.428 55.4 342.328 50.2667 340.661 44.6C339.061 44.9333 337.061 45.5333 334.661 46.4C335.928 55.0667 336.561 61.2667 336.561 65C336.561 67.1333 336.328 68.4333 335.861 68.9C335.128 69.7667 333.561 71 331.161 72.6C331.028 72.9333 330.661 73.3667 330.061 73.9C325.061 76.5667 321.828 77.9 320.361 77.9C319.628 77.9 317.661 76.8 314.461 74.6C311.928 72.8 310.594 71.8333 310.461 71.7C308.794 70.3 307.961 68.9667 307.961 67.7C307.961 65.1 308.628 61.6333 309.961 57.3C310.828 54.6333 311.694 51.9667 312.561 49.3C312.761 48.5667 315.361 37.8 320.361 17C321.228 13.4667 322.428 10.2333 323.961 7.29999C324.428 7.03333 325.094 6.66667 325.961 6.2C327.628 5.33333 329.494 4.73333 331.561 4.4C333.028 4.26666 334.528 4.1 336.061 3.9C336.994 3.69999 338.728 3.29999 341.261 2.69999C343.394 2.16666 344.594 1.9 344.861 1.9C345.528 1.9 346.761 2.36666 348.561 3.3C350.361 4.16667 351.394 4.76667 351.661 5.1C352.661 7.63333 354.128 11 356.061 15.2C357.528 18 359.261 21.8 361.261 26.6C363.594 32.0667 365.361 36.0333 366.561 38.5C368.361 42.1 370.194 45.7 372.061 49.3C374.661 54.4333 375.961 57.2667 375.961 57.8ZM364.961 50.6L344.361 5.39999C342.494 6.26666 339.361 7.06666 334.961 7.79999C330.561 8.46666 327.394 9.3 325.461 10.3C324.261 13.9667 323.428 17.0667 322.961 19.6C322.094 24.2667 321.328 27.9 320.661 30.5C320.261 32.3 318.494 39.2333 315.361 51.3C312.761 61.0333 311.461 66.3333 311.461 67.2C311.461 67.6667 311.594 68.0333 311.861 68.3H313.061C314.528 68.3 317.328 67.2667 321.461 65.2C324.794 63.4667 327.128 62.1333 328.461 61.2C328.461 60.2667 328.361 58.8 328.161 56.8C328.028 54.8 327.961 53.8 327.961 53.8V42.6C327.961 41.6667 329.994 40.3 334.061 38.5C337.728 36.8333 339.961 36 340.761 36C342.161 36 343.494 38.6333 344.761 43.9C345.694 48.3 346.594 52.7 347.461 57.1C348.994 56.4333 351.894 55.4667 356.161 54.2C359.828 53.1333 362.761 51.9333 364.961 50.6ZM370.261 57.3C368.594 55.0333 367.694 53.9 367.561 53.9C367.228 53.9 365.961 54.4 363.761 55.4C360.961 56.6 359.161 57.3667 358.361 57.7C356.694 58.0333 354.428 58.5667 351.561 59.3C350.894 59.5667 350.228 59.8667 349.561 60.2C348.894 60.4667 348.461 60.9 348.261 61.5C350.861 64.1 352.528 65.4 353.261 65.4C353.528 65.4 355.794 64.3667 360.061 62.3C365.328 59.7 368.728 58.0333 370.261 57.3ZM332.061 68.2C331.594 67.8667 331.028 67.3667 330.361 66.7C329.694 66.0333 329.228 65.7 328.961 65.7C328.694 65.7 326.828 66.5667 323.361 68.3C321.561 69.1667 319.094 70 315.961 70.8C318.761 73.1333 320.294 74.3 320.561 74.3C320.961 74.3 322.628 73.5667 325.561 72.1C328.828 70.5 330.994 69.2 332.061 68.2ZM340.061 25.4C340.061 26.6667 339.728 27.4333 339.061 27.7C334.328 29.7 331.528 30.7 330.661 30.7C329.261 30.7 328.561 29.8667 328.561 28.2C328.561 24.4667 329.394 21.1333 331.061 18.2C333.194 17.0667 335.261 16.5333 337.261 16.6C338.261 17.6 339.194 20.5333 340.061 25.4ZM335.561 25C335.361 24.6 334.994 24 334.461 23.2C333.928 22.3333 333.561 21.7 333.361 21.3C332.961 23.5 332.761 25.0667 332.761 26C333.361 25.8 334.294 25.4667 335.561 25ZM421.459 32.624C421.507 33.536 421.363 34.76 421.027 36.296C420.547 38.792 420.307 40.04 420.307 40.04C417.763 40.472 412.075 40.64 403.243 40.544C403.147 40.544 401.371 40.688 397.915 40.976C397.915 41.36 397.867 41.888 397.771 42.56C399.691 42.8 401.587 43.04 403.459 43.28C405.235 43.76 406.483 45.152 407.203 47.456C407.251 47.648 407.275 48.152 407.275 48.968C407.275 51.848 407.203 53.816 407.059 54.872C406.627 55.112 405.595 55.28 403.963 55.376C402.379 55.472 400.819 55.568 399.283 55.664C397.795 55.76 397.027 55.808 396.979 55.808C396.547 57.536 396.019 60.584 395.395 64.952C394.867 68.888 394.243 71.912 393.523 74.024C393.139 75.272 392.755 75.896 392.371 75.896C391.987 75.896 391.411 75.968 390.643 76.112C389.875 76.208 389.275 76.256 388.843 76.256C385.963 76.256 383.995 76.088 382.939 75.752C382.219 75.512 381.427 74.456 380.563 72.584C379.747 70.856 379.339 69.56 379.339 68.696C379.339 66.872 379.963 59.288 381.211 45.944C382.507 32.552 383.275 25.64 383.515 25.208C383.755 24.776 384.331 24.56 385.243 24.56C385.531 24.56 385.987 24.608 386.611 24.704C387.283 24.8 387.787 24.848 388.123 24.848C401.707 24.848 411.835 25.616 418.507 27.152C418.987 27.296 419.947 28.784 421.387 31.616L421.459 32.624ZM419.443 32.264C419.443 32.312 419.107 31.664 418.435 30.32C418.435 31.04 418.315 32.168 418.075 33.704C417.883 35.192 417.787 36.176 417.787 36.656C417.787 36.848 417.907 37.064 418.147 37.304C418.435 37.688 418.603 37.904 418.651 37.952C419.179 34.64 419.443 32.744 419.443 32.264ZM405.403 52.136V48.104C405.403 47.912 405.187 47.576 404.755 47.096C404.371 46.568 404.155 46.256 404.107 46.16C404.155 46.544 404.131 47.048 404.035 47.672C403.939 48.296 403.891 48.752 403.891 49.04C403.891 49.712 404.035 50.288 404.323 50.768C404.659 51.2 405.019 51.656 405.403 52.136ZM395.971 39.968C395.971 39.776 395.587 39.152 394.819 38.096C394.627 39.584 394.411 40.952 394.171 42.2H395.467C395.803 40.616 395.971 39.872 395.971 39.968ZM415.771 29.456C410.731 28.928 405.691 28.424 400.651 27.944C394.267 27.32 389.107 27.008 385.171 27.008L381.643 68.84C381.595 68.984 381.595 69.224 381.643 69.56C381.739 69.896 381.787 70.136 381.787 70.28C382.603 70.28 383.803 70.304 385.387 70.352C386.971 70.4 388.147 70.424 388.915 70.424C389.203 65.768 389.827 59.096 390.787 50.408C390.931 49.736 391.387 49.4 392.155 49.4C392.587 49.4 393.235 49.448 394.099 49.544C394.963 49.64 395.611 49.688 396.043 49.688C396.715 49.688 397.723 49.664 399.067 49.616C400.459 49.52 401.491 49.472 402.163 49.472C402.307 49.136 402.379 47.84 402.379 45.584H401.731C400.771 45.632 399.019 45.44 396.475 45.008C393.643 44.576 392.059 44.168 391.723 43.784C392.107 38.456 392.635 35.72 393.307 35.576C395.563 35 402.883 34.928 415.267 35.36C415.603 34.496 415.771 32.528 415.771 29.456ZM394.603 54.944C394.603 54.944 394.051 54.272 392.947 52.928C392.707 55.616 392.371 59.696 391.939 65.168C391.891 65.792 391.699 66.848 391.363 68.336C391.075 69.776 390.931 70.88 390.931 71.648C390.931 71.792 391.051 72.176 391.291 72.8C391.579 73.424 391.747 73.808 391.795 73.952C392.275 70.448 393.019 65.192 394.027 58.184C394.411 55.64 394.603 54.56 394.603 54.944ZM489.89 15.3C489.89 18.0333 489.323 21.8 488.19 26.6C487.657 27.7333 487.023 29.1 486.29 30.7C486.09 31.6333 485.857 32.3667 485.59 32.9C485.323 33.4333 484.523 34.1667 483.19 35.1C481.857 36.0333 480.923 36.5 480.39 36.5C478.19 36.5 475.723 36.1 472.99 35.3C469.39 34.1667 467.423 33.5667 467.09 33.5C466.69 37.5667 465.99 43.4 464.99 51C464.657 53.2 464.023 55.6667 463.09 58.4C462.423 60.6 461.723 62.7667 460.99 64.9C460.59 66.7 459.723 69.3667 458.39 72.9C457.99 73.5667 456.923 74.7333 455.19 76.4C453.19 78.2 451.79 79.1 450.99 79.1C449.723 79.1 447.657 78.4333 444.79 77.1C442.857 76.1667 440.923 75.2333 438.99 74.3C436.657 73.3667 435.557 72.2 435.69 70.8L442.99 29.9C442.123 28.6333 441.023 27.7667 439.69 27.3C438.423 26.7667 437.19 26.3 435.99 25.9C433.79 25.3 431.59 24.7 429.39 24.1C425.99 23.1 424.29 22.0333 424.29 20.9C424.29 20.7 424.557 19.9 425.09 18.5C425.69 16.7667 426.09 15.5 426.29 14.7C426.623 12.7667 427.29 9.9 428.29 6.1C428.423 5.69999 429.357 5.13333 431.09 4.4C432.823 3.6 433.857 3.2 434.19 3.2C438.323 3.2 441.69 3.3 444.29 3.5C445.157 3.56666 448.123 4.23333 453.19 5.49999C459.123 7.03333 463.257 8.03333 465.59 8.5C468.657 9.03333 473.423 10 479.89 11.4C482.023 11.7333 485.023 12.4 488.89 13.4C489.557 13.6 489.89 14.2333 489.89 15.3ZM486.99 17.7V15.4C484.857 15.2 481.923 14.7 478.19 13.9C476.257 13.2333 474.323 12.7333 472.39 12.4C468.457 11.7333 462.29 10.4 453.89 8.4C447.957 6.93333 443.357 6.2 440.09 6.2H434.79C434.59 7.13333 434.157 8.86666 433.49 11.4C432.823 13.6 432.49 14.8 432.49 15V16.7C435.49 16.8333 440.457 18.1667 447.39 20.7C448.457 20.9 449.49 21.1333 450.49 21.4C451.89 21.7333 452.59 22.3333 452.59 23.2C452.59 23.3333 452.39 24.1 451.99 25.5C451.657 26.8333 451.49 27.7333 451.49 28.2C450.423 38.9333 448.123 51.8667 444.59 67C447.257 67.9333 451.123 69.2333 456.19 70.9C457.857 66.1667 459.89 59.2333 462.29 50.1C462.69 47.7667 463.29 42.2 464.09 33.4C464.29 31.1333 464.357 29.5333 464.29 28.6C464.29 28.5333 464.223 28.2 464.09 27.6C464.023 27 463.99 26.6 463.99 26.4C464.057 25.5333 464.657 25.1 465.79 25.1C465.923 25.1 466.457 25.2667 467.39 25.6C468.323 25.8667 468.957 26 469.29 26C472.357 26 477.457 26.7 484.59 28.1C486.19 22.9667 486.99 19.5 486.99 17.7ZM431.99 7.9V6.9C430.99 7.23333 430.357 7.56667 430.09 7.9C429.557 11.2333 428.79 14.7 427.79 18.3C428.457 17.9667 429.157 17.4667 429.89 16.8C430.357 15.6 430.857 13.8333 431.39 11.5C431.857 9.43333 432.057 8.23333 431.99 7.9ZM448.89 27.3V26.5C448.623 26.6333 447.59 27.1667 445.79 28.1C445.723 28.5 444.823 33.3 443.09 42.5C442.09 48.8333 440.557 57.7667 438.49 69.3C439.49 68.6333 440.59 67.7 441.79 66.5C442.99 62.7 444.19 57.2333 445.39 50.1C447.79 36.1 448.957 28.5 448.89 27.3Z" fill="black"/>
</svg>
